<svg width="41" height="39" viewBox="0 0 41 39" fill="none" xmlns="http://www.w3.org/2000/svg">
<path d="M20.6138 9.46396C14.9384 9.46396 10.3606 13.911 10.3606 19.4242C10.3606 24.9374 14.9384 29.3844 20.6138 29.3844C26.2892 29.3844 30.867 24.9374 30.867 19.4242C30.867 13.911 26.2892 9.46396 20.6138 9.46396ZM20.6138 25.8996C16.9462 25.8996 13.9479 22.9957 13.9479 19.4242C13.9479 15.8527 16.9373 12.9487 20.6138 12.9487C24.2904 12.9487 27.2798 15.8527 27.2798 19.4242C27.2798 22.9957 24.2814 25.8996 20.6138 25.8996ZM33.678 9.05653C33.678 10.3482 32.6071 11.3797 31.2865 11.3797C29.9568 11.3797 28.8949 10.3395 28.8949 9.05653C28.8949 7.77358 29.9658 6.73334 31.2865 6.73334C32.6071 6.73334 33.678 7.77358 33.678 9.05653ZM40.4688 11.4144C40.3171 8.30236 39.5854 5.54574 37.2385 3.27457C34.9005 1.00339 32.0628 0.292566 28.8592 0.136531C25.5575 -0.0455102 15.6612 -0.0455102 12.3595 0.136531C9.16487 0.283897 6.32717 0.994723 3.98026 3.2659C1.63336 5.53708 0.910546 8.29369 0.749922 11.4057C0.562526 14.6131 0.562526 24.2266 0.749922 27.434C0.901623 30.546 1.63336 33.3026 3.98026 35.5738C6.32717 37.845 9.15594 38.5558 12.3595 38.7119C15.6612 38.8939 25.5575 38.8939 28.8592 38.7119C32.0628 38.5645 34.9005 37.8537 37.2385 35.5738C39.5765 33.3026 40.3082 30.546 40.4688 27.434C40.6562 24.2266 40.6562 14.6218 40.4688 11.4144ZM36.2034 30.8754C35.5073 32.5745 34.1599 33.8834 32.4019 34.5683C29.7694 35.5825 23.5229 35.3484 20.6138 35.3484C17.7047 35.3484 11.4493 35.5738 8.82577 34.5683C7.07675 33.8921 5.72929 32.5831 5.02432 30.8754C3.98026 28.3182 4.2212 22.2502 4.2212 19.4242C4.2212 16.5982 3.98919 10.5215 5.02432 7.97296C5.72036 6.27391 7.06782 4.96495 8.82577 4.28013C11.4582 3.2659 17.7047 3.49995 20.6138 3.49995C23.5229 3.49995 29.7784 3.27457 32.4019 4.28013C34.1509 4.95628 35.4984 6.26524 36.2034 7.97296C37.2474 10.5302 37.0065 16.5982 37.0065 19.4242C37.0065 22.2502 37.2474 28.3269 36.2034 30.8754Z" fill="#656565"/>
</svg>
