<svg width="41" height="39" viewBox="0 0 41 39" fill="none" xmlns="http://www.w3.org/2000/svg">
<path d="M40.6094 19.4286C40.6094 30.1613 31.6578 38.8572 20.6094 38.8572C18.5449 38.8572 16.561 38.5516 14.69 37.9876C15.5045 36.695 16.7223 34.5798 17.1739 32.8954C17.4158 31.9867 18.4158 28.2733 18.4158 28.2733C19.0691 29.4797 20.9723 30.506 22.9965 30.506C29.0287 30.506 33.3755 25.1162 33.3755 18.418C33.3755 12.0019 27.9803 7.19955 21.0449 7.19955C12.4158 7.19955 7.82712 12.8244 7.82712 18.9585C7.82712 21.8102 9.39163 25.359 11.8836 26.4871C12.2626 26.6595 12.4642 26.5811 12.5529 26.2286C12.6174 25.9622 12.9561 24.6383 13.1094 24.0272C13.1578 23.8314 13.1336 23.659 12.9723 23.471C12.1578 22.4917 11.4965 20.7055 11.4965 19.0369C11.4965 14.7516 14.8352 10.6074 20.5287 10.6074C25.44 10.6074 28.8836 13.8585 28.8836 18.512C28.8836 23.7687 26.1497 27.4115 22.5932 27.4115C20.6336 27.4115 19.1578 25.8369 19.6336 23.9019C20.1981 21.5908 21.2868 19.0996 21.2868 17.4309C21.2868 15.9424 20.4642 14.6968 18.7545 14.6968C16.7465 14.6968 15.1336 16.7102 15.1336 19.4129C15.1336 21.1364 15.7303 22.2959 15.7303 22.2959C15.7303 22.2959 13.7545 30.4277 13.3916 31.9475C12.9884 33.624 13.1497 35.9899 13.3191 37.5254C5.88357 34.6973 0.609375 27.6622 0.609375 19.4286C0.609375 8.69586 9.56099 0 20.6094 0C31.6578 0 40.6094 8.69586 40.6094 19.4286Z" fill="#656565"/>
</svg>
