<svg width="41" height="33" viewBox="0 0 41 33" fill="none" xmlns="http://www.w3.org/2000/svg">
<path d="M36.4978 8.75083C36.5232 9.09599 36.5232 9.44123 36.5232 9.78639C36.5232 20.3143 28.2745 32.4448 13.1983 32.4448C8.55355 32.4448 4.23884 31.138 0.609375 28.8698C1.2693 28.9437 1.90376 28.9684 2.58907 28.9684C6.42151 28.9684 9.94949 27.711 12.7668 25.566C9.16269 25.492 6.14237 23.199 5.10174 20.0431C5.60939 20.117 6.11697 20.1663 6.65002 20.1663C7.38604 20.1663 8.12214 20.0677 8.80738 19.8952C5.05103 19.1554 2.23368 15.9503 2.23368 12.0793V11.9808C3.32501 12.5725 4.59416 12.9423 5.93924 12.9916C3.73111 11.5615 2.28446 9.12065 2.28446 6.35921C2.28446 4.87991 2.69048 3.52386 3.40118 2.34038C7.43675 7.17286 13.5028 10.3287 20.3048 10.674C20.1779 10.0822 20.1017 9.46589 20.1017 8.84949C20.1017 4.46075 23.7566 0.885742 28.2997 0.885742C30.6601 0.885742 32.7921 1.84731 34.2896 3.40061C36.1423 3.05544 37.919 2.38971 39.4927 1.47748C38.8834 3.32669 37.5891 4.87999 35.8886 5.86614C37.5383 5.69363 39.1373 5.24974 40.6094 4.63341C39.4928 6.2113 38.0968 7.61661 36.4978 8.75083Z" fill="#656565"/>
</svg>
